<?xml version="1.0" encoding="UTF-8"?><svg id="uuid-f454f8ae-6440-46bd-ade7-7d44487b4802" xmlns="http://www.w3.org/2000/svg" viewBox="0 0 512 512"><defs><style>.uuid-ee14b433-2c39-4533-8e3b-302ab3d382d7{fill:#fff;}.uuid-ebb7575a-9453-4c77-826f-6655c7c9a328{fill:#263067;}</style></defs><circle class="uuid-ebb7575a-9453-4c77-826f-6655c7c9a328" cx="256" cy="256" r="256"/><path class="uuid-ee14b433-2c39-4533-8e3b-302ab3d382d7" d="M40.7,158.5h48.3l14.4,97.4c2.7,22,5.8,44,8.5,66h1.3c4.1-22,8.2-44.2,12.4-66l22.4-97.4h40l22.4,97.4c4.2,21.2,8.4,43.7,12.5,66h1.3c2.7-22.2,5.6-44.5,8.4-66l14.5-97.4h45l-37,208.6h-59.3l-20.4-94.7c-3.3-16.1-6.1-32.8-8.4-48.4h-1.3c-2.5,15.6-5.2,32.3-8.5,48.4l-19.8,94.7h-58.2l-38.7-208.6Z"/><path class="uuid-ee14b433-2c39-4533-8e3b-302ab3d382d7" d="M357.9,259.7l-54.2-101.2h52.5l18.1,39.4c4.7,9.6,9.2,20.3,15.2,33.4h1.3c4.8-13.1,9.2-23.8,13.4-33.4l16.6-39.4h50.3l-54.2,103.5,57.7,105.1h-52.5l-20.6-42.5c-5.2-10.8-10.1-21.5-15.6-34.3h-1.3c-4.9,12.8-9.6,23.6-14.3,34.3l-19.5,42.5h-50.3l57.7-107.3Z"/></svg>